<mxfile host="app.diagrams.net" modified="2022-04-14T03:56:09.454Z" agent="5.0 (Windows NT 10.0; Win64; x64) AppleWebKit/537.36 (KHTML, like Gecko) Chrome/96.0.4664.110 Safari/537.36" etag="YWMF0b4L4FZ-FGox-5ez" version="17.4.4" type="github">
  <diagram id="aOazbEM6QWOl_KYFxzYn" name="第 1 页">
    <mxGraphModel dx="1185" dy="693" grid="1" gridSize="10" guides="1" tooltips="1" connect="1" arrows="1" fold="1" page="1" pageScale="1" pageWidth="827" pageHeight="1169" background="#283618" math="0" shadow="0">
      <root>
        <mxCell id="0" />
        <mxCell id="1" parent="0" />
        <UserObject label="" link="www.baid.com" id="A8_AzvY26_DH5kYESe5h-2">
          <mxCell style="ellipse;whiteSpace=wrap;html=1;aspect=fixed;fillColor=#BC6C25;strokeColor=#DDA15E;rounded=0;fontColor=#FEFAE0;" parent="1" vertex="1">
            <mxGeometry x="440" y="150" width="80" height="80" as="geometry" />
          </mxCell>
        </UserObject>
        <mxCell id="A8_AzvY26_DH5kYESe5h-6" style="edgeStyle=orthogonalEdgeStyle;rounded=0;orthogonalLoop=1;jettySize=auto;html=1;entryX=0;entryY=0.5;entryDx=0;entryDy=0;labelBackgroundColor=#283618;strokeColor=#DDA15E;fontColor=#FEFAE0;" parent="1" source="A8_AzvY26_DH5kYESe5h-5" target="A8_AzvY26_DH5kYESe5h-2" edge="1">
          <mxGeometry relative="1" as="geometry" />
        </mxCell>
        <UserObject label="" link="https://www.baidu.com/" id="A8_AzvY26_DH5kYESe5h-5">
          <mxCell style="rounded=0;whiteSpace=wrap;html=1;strokeWidth=2;fillWeight=4;hachureGap=8;hachureAngle=45;fillColor=#BC6C25;sketch=1;strokeColor=#DDA15E;fontColor=#FEFAE0;" parent="1" vertex="1">
            <mxGeometry x="140" y="160" width="120" height="60" as="geometry" />
          </mxCell>
        </UserObject>
        <mxCell id="A8_AzvY26_DH5kYESe5h-21" style="edgeStyle=orthogonalEdgeStyle;rounded=0;orthogonalLoop=1;jettySize=auto;html=1;entryX=0.5;entryY=1;entryDx=0;entryDy=0;labelBackgroundColor=#283618;strokeColor=#DDA15E;fontColor=#FEFAE0;" parent="1" source="A8_AzvY26_DH5kYESe5h-20" target="A8_AzvY26_DH5kYESe5h-5" edge="1">
          <mxGeometry relative="1" as="geometry" />
        </mxCell>
        <mxCell id="A8_AzvY26_DH5kYESe5h-20" value="Actor" style="shape=umlActor;verticalLabelPosition=bottom;verticalAlign=top;html=1;rounded=0;fillColor=#BC6C25;strokeColor=#DDA15E;fontColor=#FEFAE0;" parent="1" vertex="1">
          <mxGeometry x="185" y="360" width="30" height="70" as="geometry" />
        </mxCell>
        <mxCell id="Su0tWqZLm0ifTqQ0Aovo-1" value="" style="dashed=0;outlineConnect=0;html=1;align=center;labelPosition=center;verticalLabelPosition=bottom;verticalAlign=top;shape=mxgraph.weblogos.chrome;movable=0;resizable=0;rotatable=0;deletable=0;editable=0;connectable=0;rounded=0;fillColor=#BC6C25;strokeColor=#DDA15E;fontColor=#FEFAE0;" parent="1" vertex="1">
          <mxGeometry x="410" y="340" width="74.8" height="75.4" as="geometry" />
        </mxCell>
      </root>
    </mxGraphModel>
  </diagram>
</mxfile>
